<svg width="14" height="11" viewBox="0 0 14 11" fill="none" xmlns="http://www.w3.org/2000/svg">
<path d="M1.26224 6.21926L1.20469 5.1899C1.18885 4.90674 1.33984 4.64378 1.60281 4.50392C1.80874 4.39527 2.07883 4.25506 2.39249 4.09769L0.414224 2.42777C0.253419 2.29203 0.181277 2.08513 0.227141 1.88579C0.273006 1.68645 0.429762 1.52676 0.636617 1.4665L3.10822 0.743811C3.71999 0.565111 4.38499 0.701137 4.85993 1.10204L6.39879 2.40104C6.51101 2.3688 6.61818 2.34183 6.72366 2.3166C10.2888 1.49177 12.6373 3.34726 13.7729 4.7312C13.9545 4.95111 13.9696 5.25267 13.8154 5.49074C12.8386 6.98011 10.7097 9.0522 7.07403 8.58274C6.96818 8.56957 6.85672 8.55166 6.74152 8.5306L5.35596 9.97325C4.92834 10.4185 4.28046 10.6207 3.65379 10.5011L1.11514 10.0246C0.902694 9.98489 0.728988 9.84143 0.661144 9.64768C0.593301 9.45392 0.640289 9.24284 0.786758 9.09034L2.59153 7.21121C2.24539 7.07456 1.94806 6.95053 1.72366 6.85633C1.45363 6.74266 1.2777 6.49576 1.26037 6.21768L1.26224 6.21926ZM9.16584 6.0064C9.3642 6.17385 9.62539 6.26056 9.89194 6.24747C10.1585 6.23437 10.4086 6.12255 10.5872 5.93659C10.7658 5.75063 10.8583 5.50576 10.8443 5.25587C10.8303 5.00597 10.711 4.77152 10.5127 4.60407C10.3143 4.43663 10.0531 4.34992 9.78657 4.36301C9.52002 4.3761 9.26993 4.48793 9.09133 4.67389C8.91273 4.85985 8.82024 5.10471 8.83421 5.35461C8.84819 5.6045 8.96747 5.83896 9.16584 6.0064Z" fill="black"/>
</svg>
