<svg width="98" height="87" viewBox="0 0 98 87" fill="none" xmlns="http://www.w3.org/2000/svg">
<path d="M51.2887 72.9141L51.2794 72.9074C49.9107 71.9348 48.0893 71.9348 46.7206 72.9074L46.7113 72.9141L46.7018 72.9206C42.6856 75.683 37.7148 77.6193 32.6632 77.6193C27.7162 77.6193 22.5926 75.6507 18.6425 72.9382L18.6349 72.933L18.6275 72.9278C17.1589 71.8927 15.1554 71.9808 13.7892 73.136L13.7823 73.1418L13.7754 73.1475C11.1517 75.3123 7.86202 76.9658 4.5484 77.7335M51.2887 72.9141L6.33812 85.3964L6.67738 86.8576L6.33799 85.3965C4.21497 85.8894 2.09579 84.5698 1.60354 82.4565C1.11121 80.3428 2.42789 78.2263 4.5484 77.7335M51.2887 72.9141L51.2982 72.9206M51.2887 72.9141L51.2982 72.9206M4.5484 77.7335L4.20984 76.2722L4.54911 77.7334C4.54887 77.7334 4.54863 77.7335 4.5484 77.7335ZM51.2982 72.9206C55.3144 75.683 60.2852 77.6193 65.3368 77.6193C70.2827 77.6193 75.4255 75.6515 79.3639 72.9168L79.3717 72.9114M51.2982 72.9206L79.3717 72.9114M79.3717 72.9114L79.3794 72.9059M79.3717 72.9114L79.3794 72.9059M79.3794 72.9059C80.8449 71.8608 82.8406 71.9481 84.2048 73.1139L84.2147 73.1223M79.3794 72.9059L84.2147 73.1223M84.2147 73.1223L84.2247 73.1305M84.2147 73.1223L84.2247 73.1305M84.2247 73.1305C86.8484 75.2953 90.138 76.9488 93.4516 77.7165C95.5721 78.2093 96.8888 80.3258 96.3965 82.4395C95.9042 84.5528 93.785 85.8724 91.662 85.3795C87.7106 84.4616 84.3983 82.7149 82.2253 81.3284L81.4837 80.8551M84.2247 73.1305L81.4837 80.8551M81.4837 80.8551L80.7087 81.2714M81.4837 80.8551L80.7087 81.2714M80.7087 81.2714C75.9324 83.8367 70.6453 85.4935 65.3368 85.4935M80.7087 81.2714L65.3368 85.4935M65.3368 85.4935C60.2073 85.4935 55.5472 83.9008 52.2809 82.4192L65.3368 85.4935ZM63.8368 10.8742V12.3742H65.3368H73.5053C77.1887 12.3742 80.1737 15.3579 80.1737 19.0298V40.7782V41.8599L81.2 42.2015L88.7558 44.7161C91.6086 45.6656 92.3846 49.3333 90.1771 51.3414L90.1737 51.3445L73.1083 66.9661C70.5622 68.4129 67.7307 69.2502 65.3368 69.2502C62.3744 69.2502 59.0592 68.0782 56.1155 66.0672C51.8404 63.0781 46.1393 63.0787 41.8648 66.0691C39.1267 67.9544 35.8642 69.2502 32.6461 69.2502C30.2522 69.2502 27.4208 68.4129 24.8747 66.9661L7.80933 51.3445L7.80923 51.3444C5.5942 49.3172 6.37724 45.6646 9.2272 44.7161L16.799 42.2018L17.8263 41.8606V40.7782V19.0298C17.8263 15.3579 20.8113 12.3742 24.4947 12.3742H32.6632H34.1632V10.8742V5.43709C34.1632 3.26034 35.9229 1.5 38.1088 1.5H59.8912C62.0771 1.5 63.8368 3.26034 63.8368 5.43709V10.8742ZM25.7176 37.1591V39.2386L27.6908 38.5825L46.0357 32.4828L46.0394 32.4816C47.958 31.8381 50.0409 31.837 51.9809 32.4826L70.3088 38.5824L72.2825 39.2392V37.1591V21.7484V20.2484H70.7825H27.2176H25.7176V21.7484V37.1591Z" stroke="white" stroke-width="3"/>
</svg>
