<svg width="85" height="74" viewBox="0 0 85 74" fill="none" xmlns="http://www.w3.org/2000/svg">
<path d="M21.031 13.6065L21.0303 13.6087L16.6972 25.931L15.9948 27.9286H18.1123H66.8877H69.0052L68.3028 25.931L63.9697 13.6087L63.969 13.6065C63.0092 10.8903 60.432 9.07143 57.541 9.07143H27.459C24.568 9.07143 21.9908 10.8903 21.031 13.6065ZM7.14527 28.6085L7.76616 28.3529L7.98911 27.7195L13.8327 11.1196C15.8616 5.36244 21.3194 1.5 27.459 1.5H57.541C63.6804 1.5 69.138 5.36222 71.1671 11.1191C71.1672 11.1192 71.1673 11.1194 71.1673 11.1196L77.0109 27.7195L77.2338 28.3529L77.8547 28.6085C81.1685 29.9728 83.5 33.2235 83.5 37V60.7857V68.7143C83.5 70.8024 81.8047 72.5 79.6875 72.5H74.375C72.2578 72.5 70.5625 70.8024 70.5625 68.7143V60.7857V59.2857H69.0625H15.9375H14.4375V60.7857V68.7143C14.4375 70.8024 12.7422 72.5 10.625 72.5H5.3125C3.19529 72.5 1.5 70.8024 1.5 68.7143V60.7857V37C1.5 33.2235 3.83147 29.9728 7.14527 28.6085ZM22.75 42.2857C22.75 40.4836 22.0304 38.7568 20.752 37.4848C19.4738 36.2131 17.7418 35.5 15.9375 35.5C14.1332 35.5 12.4012 36.2131 11.123 37.4848C9.84459 38.7568 9.125 40.4836 9.125 42.2857C9.125 44.0879 9.84459 45.8146 11.123 47.0866C12.4012 48.3583 14.1332 49.0714 15.9375 49.0714C17.7418 49.0714 19.4738 48.3583 20.752 47.0866C22.0304 45.8146 22.75 44.0879 22.75 42.2857ZM69.0625 49.0714C70.8669 49.0714 72.5988 48.3583 73.877 47.0866C75.1554 45.8146 75.875 44.0879 75.875 42.2857C75.875 40.4836 75.1554 38.7568 73.877 37.4848C72.5988 36.2131 70.8669 35.5 69.0625 35.5C67.2581 35.5 65.5262 36.2131 64.248 37.4848C62.9696 38.7568 62.25 40.4836 62.25 42.2857C62.25 44.0879 62.9696 45.8146 64.248 47.0866C65.5262 48.3583 67.2581 49.0714 69.0625 49.0714Z" stroke="white" stroke-width="3"/>
</svg>
