<svg width="13" height="12" viewBox="0 0 13 12" fill="none" xmlns="http://www.w3.org/2000/svg">
<path d="M2.37042 0.917255L2.47755 1.15H2.73377H12.0891C12.4111 1.15 12.6748 1.4736 12.581 1.82921L12.5808 1.83007L11.6477 5.39908C11.4984 5.967 11.0027 6.35 10.4525 6.35H3.88555H3.40523L3.49216 6.82239L3.61507 7.49036L3.61544 7.49229C3.6995 7.93689 4.08248 8.275 4.54567 8.275H11.1081C11.179 8.275 11.2544 8.3356 11.2544 8.4375C11.2544 8.5394 11.179 8.6 11.1081 8.6H4.54567C3.9588 8.6 3.44205 8.16898 3.3298 7.55677L3.32969 7.55617L2.15556 1.2069C2.15548 1.20642 2.15539 1.20593 2.1553 1.20545C2.10531 0.929951 1.86758 0.725 1.58199 0.725H0.546299C0.475411 0.725 0.4 0.664405 0.4 0.5625C0.4 0.460596 0.475411 0.4 0.546299 0.4H1.58199C1.91888 0.4 2.22529 0.601968 2.37042 0.917255ZM3.3136 10.875C3.3136 10.7782 3.33213 10.6826 3.36786 10.5938C3.40359 10.505 3.45566 10.425 3.52056 10.3582C3.58542 10.2914 3.6618 10.2391 3.745 10.2036C3.82817 10.1681 3.91689 10.15 4.0062 10.15C4.0955 10.15 4.18422 10.1681 4.26739 10.2036C4.35059 10.2391 4.42697 10.2914 4.49183 10.3582C4.55673 10.425 4.6088 10.505 4.64453 10.5938C4.68026 10.6826 4.69879 10.7782 4.69879 10.875C4.69879 10.9718 4.68026 11.0674 4.64453 11.1562C4.6088 11.245 4.55673 11.325 4.49183 11.3918C4.42697 11.4586 4.35059 11.5109 4.26739 11.5464C4.18422 11.5819 4.0955 11.6 4.0062 11.6C3.91689 11.6 3.82817 11.5819 3.745 11.5464C3.6618 11.5109 3.58542 11.4586 3.52056 11.3918C3.45566 11.325 3.40359 11.245 3.36786 11.1562C3.33213 11.0674 3.3136 10.9718 3.3136 10.875ZM10.5618 10.15C10.7416 10.15 10.9166 10.2235 11.0474 10.3582C11.1787 10.4933 11.2544 10.679 11.2544 10.875C11.2544 11.071 11.1787 11.2567 11.0474 11.3918C10.9166 11.5265 10.7416 11.6 10.5618 11.6C10.3819 11.6 10.207 11.5265 10.0761 11.3918C9.94491 11.2567 9.86919 11.071 9.86919 10.875C9.86919 10.679 9.94491 10.4933 10.0761 10.3582C10.207 10.2235 10.3819 10.15 10.5618 10.15Z" stroke="white" stroke-width="0.8"/>
</svg>
