<svg width="113" height="73" viewBox="0 0 113 73" fill="none" xmlns="http://www.w3.org/2000/svg">
<path d="M65.9832 7.52438H67.4832H95.934C98.596 7.52438 100.124 5.87382 100.124 4.51219C100.124 3.15056 98.596 1.5 95.934 1.5H27.6521C24.9901 1.5 23.462 3.15056 23.462 4.51219C23.462 5.87382 24.9901 7.52438 27.6521 7.52438H56.1029H57.6029V9.02438V18.0488V19.5488H56.1029H19.1169H18.471L18.0271 19.0795L11.1989 11.86L11.1925 11.8532L11.1926 11.8532C10.4569 11.0656 9.1922 10.5244 7.7366 10.5244H2.84662C2.28501 10.5244 1.87798 10.7351 1.67028 10.946C1.47842 11.1408 1.48729 11.2752 1.51716 11.3672L1.52138 11.3802L1.52132 11.3803L5.61084 24.3801C5.87655 25.2229 6.71279 26.08 8.04787 26.5035L32.3199 34.2024L32.3276 34.2048C33.485 34.5788 34.5696 35.2069 35.3937 36.0835C35.3945 36.0843 35.3952 36.0851 35.3959 36.0859L48.0874 49.5047L65.9832 7.52438ZM65.9832 7.52438V9.02438M65.9832 7.52438V9.02438M65.9832 9.02438V18.0488V19.5488M65.9832 9.02438V19.5488M65.9832 19.5488H67.4832M65.9832 19.5488H67.4832M67.4832 19.5488H73.1734M67.4832 19.5488H73.1734M73.1734 19.5488C88.4071 19.5488 100.124 29.279 100.124 40.6097M73.1734 19.5488L100.124 40.6097M100.124 40.6097V49.6341M100.124 40.6097V49.6341M100.124 49.6341C100.124 50.9957 98.596 52.6463 95.934 52.6463M100.124 49.6341L95.934 52.6463M95.934 52.6463H67.4832M95.934 52.6463H67.4832M67.4832 52.6463H56.1029M67.4832 52.6463H56.1029M56.1029 52.6463C52.8768 52.6463 49.9154 51.4327 48.0884 49.5058L56.1029 52.6463ZM65.9832 45.1219V46.6219H67.4832H90.2438H91.7438V45.1219V40.6097C91.7438 32.0022 83.083 25.5731 73.1734 25.5731H67.4832H65.9832V27.0731V45.1219ZM110.41 61.166C111.195 61.7927 111.5 62.5299 111.5 63.1777C111.5 63.8278 111.193 64.5681 110.401 65.1962L109.707 65.7461C105.734 68.8971 100.275 70.7091 94.547 70.7091H44.7226C42.0606 70.7091 40.5325 69.0586 40.5325 67.6969C40.5325 66.3353 42.0606 64.6847 44.7226 64.6847H94.547C97.8665 64.6847 101.104 63.6501 103.534 61.7232L104.228 61.1733C105.901 59.8461 108.732 59.8437 110.41 61.166Z" stroke="white" stroke-width="3"/>
</svg>
