<svg width="25" height="18" viewBox="0 0 25 18" fill="none" xmlns="http://www.w3.org/2000/svg">
<path d="M14.8979 3.20012L14.7972 3.16343L7.1847 0.389282C7.18458 0.389238 7.18446 0.389194 7.18434 0.389151C6.59434 0.176437 5.94213 0.207962 5.38324 0.481187L5.38249 0.481553L3.59051 1.35021C3.59036 1.35029 3.59021 1.35036 3.59006 1.35043C3.33119 1.47771 3.31624 1.81971 3.55444 1.96889C3.55447 1.96891 3.55449 1.96892 3.55452 1.96894L9.29266 5.55549L9.67202 5.7926L9.27127 5.99143L5.42362 7.90051L5.31973 7.95206L5.21328 7.90603L2.93984 6.92303L2.93923 6.92276C2.66597 6.80374 2.3483 6.81026 2.08294 6.94069L2.0819 6.9412L0.825034 7.55179C0.824878 7.55187 0.824723 7.55194 0.824567 7.55202C0.603876 7.66073 0.554991 7.92786 0.706661 8.09907L0.707023 8.09947L3.56228 11.3367C3.75254 11.5519 4.0317 11.6774 4.32422 11.6774H9.70312C9.85971 11.6774 10.0138 11.6408 10.1525 11.5735L10.1525 11.5735L20.8124 6.39667L14.8979 3.20012ZM14.8979 3.20012L14.9939 3.15249M14.8979 3.20012L14.9939 3.15249M14.9939 3.15249L19.0408 1.14473L19.0409 1.14469C19.7091 0.812827 20.4523 0.639428 21.2031 0.639428H23.4453C24.3357 0.639428 24.9297 1.49818 24.6263 2.28019L24.6262 2.28044M14.9939 3.15249L24.6262 2.28044M24.6262 2.28044C23.9346 4.06858 22.5734 5.53926 20.8127 6.39656L24.6262 2.28044ZM1.25 17.75C0.689831 17.75 0.25 17.3125 0.25 16.7855C0.25 16.2585 0.689831 15.821 1.25 15.821H23.75C24.3102 15.821 24.75 16.2585 24.75 16.7855C24.75 17.3125 24.3102 17.75 23.75 17.75H1.25Z" stroke="black" stroke-width="0.5"/>
</svg>
