<svg width="25" height="18" viewBox="0 0 25 18" fill="none" xmlns="http://www.w3.org/2000/svg">
<path d="M0.713067 2.08389C0.444719 2.03081 0.250259 2.21736 0.25 2.39028C0.25 2.39039 0.25 2.39051 0.25 2.39062L0.261717 5.86674L0.261987 5.94675C0.282459 6.14041 0.377832 6.32568 0.539442 6.47377C0.539589 6.47391 0.539736 6.47404 0.539883 6.47418L3.77728 9.40892L3.77775 9.40934C4.06099 9.6674 4.4166 9.85211 4.8109 9.94486L0.713067 2.08389ZM0.713067 2.08389C0.713098 2.0839 0.71313 2.0839 0.713161 2.08391L2.10338 2.36156L2.10338 2.36157L2.10443 2.36177C2.44309 2.42791 2.7063 2.64387 2.82004 2.91575C2.82007 2.91582 2.8201 2.91589 2.82012 2.91596L3.51918 4.59604L3.56657 4.70992L3.68577 4.74161L8.65843 6.06348L9.09887 6.18057L8.96093 5.74621L7.33995 0.64188C7.33992 0.641795 7.3399 0.64171 7.33987 0.641624C7.28857 0.478554 7.42037 0.25 7.70312 0.25H9.26953C9.64474 0.25 9.97473 0.430332 10.1475 0.705721C10.1475 0.705768 10.1475 0.705814 10.1476 0.70586L14.4052 7.51882L14.4575 7.60253L14.5529 7.62792L18.7404 8.74237L18.7404 8.74238C19.3328 8.89997 19.8869 9.16126 20.3655 9.5051C20.3656 9.50518 20.3657 9.50527 20.3658 9.50536L21.7091 10.4753L21.7094 10.4755C22.1007 10.7573 22.2382 11.1657 22.1736 11.5382C22.1087 11.912 21.836 12.2705 21.3569 12.4337L21.3569 12.4337C19.7918 12.967 18.0817 13.0525 16.4633 12.673L16.4632 12.673L4.81113 9.94492L0.713067 2.08389ZM1.25 16H23.75C24.3288 16 24.75 16.4149 24.75 16.875C24.75 17.3351 24.3288 17.75 23.75 17.75H1.25C0.671237 17.75 0.25 17.3351 0.25 16.875C0.25 16.4149 0.671237 16 1.25 16ZM5.25 12.9375C5.25 12.7144 5.34822 12.4945 5.53336 12.3278C5.71936 12.1604 5.97678 12.0625 6.25 12.0625C6.52322 12.0625 6.78064 12.1604 6.96664 12.3278C7.15178 12.4945 7.25 12.7144 7.25 12.9375C7.25 13.1606 7.15178 13.3805 6.96664 13.5472C6.78064 13.7146 6.52322 13.8125 6.25 13.8125C5.97678 13.8125 5.71936 13.7146 5.53336 13.5472C5.34822 13.3805 5.25 13.1606 5.25 12.9375ZM10 12.625C10.2732 12.625 10.5306 12.7229 10.7166 12.8903C10.9018 13.057 11 13.2769 11 13.5C11 13.7231 10.9018 13.943 10.7166 14.1097C10.5306 14.2771 10.2732 14.375 10 14.375C9.72678 14.375 9.46936 14.2771 9.28336 14.1097C9.09822 13.943 9 13.7231 9 13.5C9 13.2769 9.09822 13.057 9.28336 12.8903C9.46936 12.7229 9.72678 12.625 10 12.625Z" stroke="black" stroke-width="0.5"/>
</svg>
