<svg width="8" height="8" viewBox="0 0 8 8" fill="none" xmlns="http://www.w3.org/2000/svg">
<path d="M4.28571 0.5625C4.28571 0.251367 4.03036 0 3.71429 0C3.39821 0 3.14286 0.251367 3.14286 0.5625V3.09375H0.571429C0.255357 3.09375 0 3.34512 0 3.65625C0 3.96738 0.255357 4.21875 0.571429 4.21875H3.14286V6.75C3.14286 7.06113 3.39821 7.3125 3.71429 7.3125C4.03036 7.3125 4.28571 7.06113 4.28571 6.75V4.21875H6.85714C7.17321 4.21875 7.42857 3.96738 7.42857 3.65625C7.42857 3.34512 7.17321 3.09375 6.85714 3.09375H4.28571V0.5625Z" fill="black"/>
</svg>
