<svg width="24" height="19" viewBox="0 0 24 19" fill="none" xmlns="http://www.w3.org/2000/svg">
<path d="M2.43391 10.358L2.33817 8.53153C2.31183 8.02911 2.56298 7.56254 3.00042 7.31439C3.34298 7.12159 3.79224 6.87283 4.314 6.59359L1.02329 3.63063C0.755803 3.38978 0.6358 3.02267 0.712092 2.66898C0.788384 2.31528 1.04914 2.03194 1.39323 1.92501L5.50455 0.642732C6.5222 0.32566 7.62838 0.567015 8.4184 1.27835L10.9782 3.58319C11.1649 3.526 11.3431 3.47813 11.5186 3.43338C17.4489 1.96985 21.3555 5.2621 23.2445 7.71766C23.5465 8.10784 23.5716 8.64292 23.3152 9.06531C21.6904 11.7079 18.1491 15.3845 12.1014 14.5515C11.9253 14.5282 11.7399 14.4964 11.5483 14.459L9.24351 17.0187C8.53219 17.8087 7.4545 18.1675 6.41208 17.9554L2.18921 17.1098C1.83583 17.0394 1.54688 16.7849 1.43402 16.4411C1.32117 16.0973 1.39933 15.7228 1.64297 15.4522L4.64508 12.118C4.0693 11.8755 3.57471 11.6555 3.20144 11.4883C2.75227 11.2866 2.45963 10.8486 2.4308 10.3552L2.43391 10.358ZM15.581 9.98028C15.9109 10.2774 16.3454 10.4312 16.7888 10.408C17.2322 10.3848 17.6482 10.1863 17.9453 9.8564C18.2424 9.52644 18.3962 9.09198 18.373 8.64858C18.3497 8.20519 18.1513 7.78919 17.8213 7.49209C17.4914 7.19499 17.0569 7.04113 16.6135 7.06436C16.1701 7.08759 15.7541 7.28601 15.457 7.61597C15.1599 7.94592 15.0061 8.38038 15.0293 8.82378C15.0526 9.26717 15.251 9.68318 15.581 9.98028Z" fill="white"/>
</svg>
