<svg width="11" height="11" viewBox="0 0 11 11" fill="none" xmlns="http://www.w3.org/2000/svg">
<path d="M4.00235 7.72675C3.86708 7.77022 3.71802 7.73914 3.60694 7.64447L3.58586 7.6234L2.98237 7.01993C2.86908 6.90664 2.83051 6.74548 2.88022 6.59601C2.93842 6.42337 3.01603 6.19831 3.10915 5.94028L3.20584 5.67239H2.92103H0.854731C0.758088 5.67239 0.668213 5.62059 0.620054 5.5366C0.57213 5.45301 0.573135 5.35041 0.622361 5.26762L0.622465 5.26745L1.64777 3.53912C1.64778 3.5391 1.64779 3.53908 1.6478 3.53907C1.86578 3.1719 2.25947 2.94762 2.68471 2.94762H4.29205H4.40529L4.46355 2.85052C4.50802 2.77641 4.55284 2.70725 4.59864 2.63854C6.13496 0.373176 8.41784 0.293526 9.80048 0.548018L9.80106 0.548123C9.94412 0.574022 10.0573 0.686545 10.0854 0.833281C10.3398 2.21792 10.258 4.49884 7.99401 6.03498L7.9932 6.03554C7.92909 6.0795 7.85846 6.12415 7.78272 6.1696L7.68561 6.22786V6.3411V7.9484C7.68561 8.37408 7.46098 8.76921 7.09469 8.98496L7.09416 8.98528L5.36573 10.0106L5.36556 10.0107C5.28277 10.0599 5.18016 10.0609 5.09657 10.013C5.01217 9.96461 4.96078 9.87646 4.96078 9.77834V7.68475V7.40351L4.69513 7.49583C4.42189 7.59078 4.18334 7.66836 4.00215 7.72681L4.06351 7.91705L4.00235 7.72675ZM7.88561 3.72881C8.14585 3.72881 8.39542 3.62544 8.57943 3.44143C8.76345 3.25742 8.86682 3.00785 8.86682 2.74762C8.86682 2.48739 8.76345 2.23782 8.57943 2.05382C8.39542 1.86981 8.14585 1.76643 7.88561 1.76643C7.62538 1.76643 7.37581 1.86981 7.1918 2.05382C7.00778 2.23782 6.90441 2.48739 6.90441 2.74762C6.90441 3.00785 7.00778 3.25742 7.1918 3.44143C7.37581 3.62544 7.62538 3.72881 7.88561 3.72881Z" stroke="white" stroke-width="0.4"/>
</svg>
