<svg width="285" height="35" viewBox="0 0 285 35" fill="none" xmlns="http://www.w3.org/2000/svg">
<path d="M25.7765 21.3658H6.73053V16.6337H31.2898C30.6454 14.6261 28.5689 12.762 24.9173 12.762H7.08853C3.00726 12.762 0.644412 14.2676 0.644412 17.5658V21.079C0.644412 23.9469 3.07886 25.596 6.65893 25.596H25.9197V30.6148H0C0.644412 33.3393 2.72085 34.7733 6.44412 34.7733H25.8481C29.9294 34.7733 31.9342 33.1959 31.9342 29.8261V26.3129C31.9342 23.2299 29.5714 21.5809 25.7765 21.3658ZM64.656 12.8337H41.1708V34.845H47.8297V26.3846H65.1572C69.9545 26.3846 72.6038 24.7356 72.6038 20.8639V18.4261C72.5322 14.8412 69.5249 12.8337 64.656 12.8337ZM66.8041 19.8601C66.8041 21.4375 66.5177 22.2978 63.94 22.2978H47.8297L47.9013 16.562H63.6536C66.5177 16.562 66.8757 17.4224 66.8757 18.928V19.8601H66.8041ZM94.7286 26.2412H80.5515L77.0431 29.9695H97.521L101.03 34.845H108.906L91.9361 11.9016L87.9265 16.8488L94.7286 26.2412ZM121.651 16.6337H146.568C145.924 14.0526 143.418 12.762 139.837 12.762H121.221C117.999 12.762 114.92 14.0526 114.92 17.5658V29.8978C114.92 33.411 117.999 34.7016 121.221 34.7016H140.052C144.348 34.7016 145.852 33.4827 146.568 30.5431H121.651V16.6337ZM175.781 23.9469V20.2186H155.661V34.845H185.376V30.6865H162.392V23.9469H175.781ZM156.377 12.8337H186.378V16.7054H156.377V12.8337ZM204.851 12.8337H194.398L206.713 21.8676C208.503 20.6488 210.58 19.3582 212.441 18.2827L204.851 12.8337ZM220.031 24.0903C218.241 25.3092 216.451 26.6714 214.732 27.962L224.041 34.7733H234.566L220.031 24.0903Z" fill="white"/>
<path d="M284.615 -0.000244141C227.334 3.29787 200.842 27.8186 194.899 33.6262L193.682 34.7733H204.279C232.919 6.0224 274.09 0.931831 284.615 -0.000244141Z" fill="white"/>
</svg>
